<svg width="536" height="248" viewBox="0 0 536 248" fill="none" xmlns="http://www.w3.org/2000/svg">
<path d="M64.4805 119.04C100.091 119.04 128.96 147.909 128.96 183.52C128.96 219.131 100.092 248 64.4805 248C28.8691 248 0 219.131 0 183.52C0.000255641 147.908 28.8693 119.04 64.4805 119.04ZM265.431 0.0488281C291.229 1.05239 313.137 17.2147 322.499 39.8779L352.16 99.2002L389.36 119.04H471.2L472.033 119.045C507.26 119.491 535.679 148.187 535.68 183.52C535.68 219.131 506.811 248 471.2 248C446.161 248 424.454 233.728 413.773 212.874L376.96 147.56L339.76 128.96H186V128.913C151.538 127.61 124 99.2611 124 64.4805C124 29.6996 151.538 1.34912 186 0.0458984V0H265.36L265.431 0.0488281Z" fill="#E3230C"></path>
</svg>