<svg width="1033" height="137" viewBox="0 0 1033 137" fill="none" xmlns="http://www.w3.org/2000/svg">
<path d="M268.188 111V39H281.594L325.141 97.7344L368.031 39H381.438V111H372.438V47.1562L329.453 106.266H321.297L277.188 47.1562V111H268.188ZM407.943 129V121.5C411.161 121.5 413.818 121.422 415.911 121.266C418.036 121.141 419.802 120.75 421.208 120.094C422.646 119.469 423.927 118.438 425.052 117C426.208 115.562 427.411 113.562 428.661 111H425.661L395.661 57H405.974L431.661 104.297L453.271 57H463.818L436.443 114C435.224 116.531 433.958 118.734 432.646 120.609C431.364 122.484 429.739 124.047 427.771 125.297C425.833 126.547 423.286 127.469 420.13 128.062C416.974 128.688 412.911 129 407.943 129ZM475.885 75.9375V74.0625C475.885 67.6875 476.197 62.3438 476.822 58.0312C477.447 53.6875 478.526 50.1562 480.057 47.4375C481.588 44.7188 483.666 42.6406 486.291 41.2031C488.947 39.7656 492.276 38.7969 496.276 38.2969C500.276 37.7656 505.088 37.5 510.713 37.5H529.604C536.041 37.5 541.463 37.8125 545.869 38.4375C550.307 39.0312 553.869 40.2344 556.557 42.0469C559.276 43.8281 561.244 46.4688 562.463 49.9688C563.682 53.4375 564.291 58.0469 564.291 63.7969H555.291C555.291 59.2656 554.885 55.75 554.072 53.25C553.26 50.7188 551.885 48.8906 549.947 47.7656C548.041 46.6406 545.432 45.9531 542.119 45.7031C538.807 45.4219 534.635 45.2812 529.604 45.2812H510.713C506.244 45.2812 502.479 45.4219 499.416 45.7031C496.354 45.9531 493.854 46.5625 491.916 47.5312C490.01 48.4688 488.541 49.9688 487.51 52.0312C486.51 54.0938 485.822 56.9062 485.447 60.4688C485.072 64.0312 484.885 68.5625 484.885 74.0625V75.9375C484.885 81.25 485.072 85.6562 485.447 89.1562C485.822 92.6562 486.51 95.4531 487.51 97.5469C488.541 99.6406 490.01 101.203 491.916 102.234C493.854 103.266 496.354 103.938 499.416 104.25C502.479 104.562 506.244 104.719 510.713 104.719H529.604C534.635 104.719 538.807 104.609 542.119 104.391C545.432 104.172 548.041 103.531 549.947 102.469C551.885 101.406 553.26 99.6406 554.072 97.1719C554.885 94.6719 555.291 91.1719 555.291 86.6719H564.291C564.291 92.4219 563.682 97.0156 562.463 100.453C561.244 103.891 559.276 106.484 556.557 108.234C553.869 109.953 550.307 111.094 545.869 111.656C541.463 112.219 536.041 112.5 529.604 112.5H510.713C503.682 112.5 497.901 112.016 493.369 111.047C488.838 110.109 485.291 108.359 482.729 105.797C480.197 103.234 478.416 99.5469 477.385 94.7344C476.385 89.9219 475.885 83.6562 475.885 75.9375ZM604.859 112.031C598.39 112.031 593.046 111.688 588.828 111C584.64 110.344 581.515 108.875 579.453 106.594C577.421 104.312 576.406 100.766 576.406 95.9531C576.406 91.0469 577.359 87.4531 579.265 85.1719C581.203 82.8594 584.249 81.3594 588.406 80.6719C592.593 79.9844 598.078 79.6406 604.859 79.6406C610.359 79.6406 614.968 79.7656 618.687 80.0156C622.406 80.2656 625.734 80.7031 628.671 81.3281C628.609 77.1719 628.328 73.9062 627.828 71.5312C627.328 69.125 626.39 67.3438 625.015 66.1875C623.64 65.0312 621.624 64.2969 618.968 63.9844C616.343 63.6406 612.843 63.4688 608.468 63.4688C603.468 63.4688 599.546 63.5781 596.703 63.7969C593.89 64.0156 591.843 64.4062 590.562 64.9688C589.281 65.5312 588.468 66.3438 588.124 67.4062C587.812 68.4688 587.656 69.8438 587.656 71.5312H578.656C578.656 68.1562 579.109 65.4375 580.015 63.375C580.953 61.3125 582.531 59.75 584.749 58.6875C586.968 57.625 589.999 56.9062 593.843 56.5312C597.718 56.1562 602.593 55.9688 608.468 55.9688C614.781 55.9688 619.859 56.375 623.703 57.1875C627.578 58 630.515 59.4688 632.515 61.5938C634.546 63.6875 635.906 66.625 636.593 70.4062C637.312 74.1875 637.671 79.0625 637.671 85.0312V111H628.671V107.297C627.609 108.422 626.14 109.328 624.265 110.016C622.39 110.703 619.89 111.203 616.765 111.516C613.671 111.859 609.703 112.031 604.859 112.031ZM604.859 104.719C610.203 104.719 614.468 104.656 617.656 104.531C620.843 104.406 623.218 104.062 624.781 103.5C626.374 102.938 627.421 102.031 627.921 100.781C628.421 99.5312 628.671 97.7812 628.671 95.5312V87.2344L604.859 86.9531C600.64 86.8906 597.234 86.9531 594.64 87.1406C592.078 87.2969 590.124 87.6719 588.781 88.2656C587.437 88.8281 586.531 89.7344 586.062 90.9844C585.624 92.2031 585.406 93.8594 585.406 95.9531C585.406 97.9844 585.624 99.5938 586.062 100.781C586.531 101.969 587.437 102.844 588.781 103.406C590.124 103.969 592.078 104.328 594.64 104.484C597.234 104.641 600.64 104.719 604.859 104.719ZM653.301 111V57H662.301V64.4531C663.301 62.8594 664.301 61.5312 665.301 60.4688C666.332 59.4062 667.661 58.5625 669.286 57.9375C670.942 57.3125 673.176 56.875 675.989 56.625C678.801 56.3438 682.504 56.2031 687.098 56.2031V63.75C680.911 63.75 676.114 63.9688 672.707 64.4062C669.332 64.8438 666.911 65.5938 665.442 66.6562C663.973 67.6875 663.082 69.125 662.77 70.9688C662.457 72.8125 662.301 75.1562 662.301 78V111H653.301ZM731.978 112.031C725.416 112.031 720.134 111.812 716.134 111.375C712.166 110.938 709.15 110.125 707.087 108.938C705.056 107.75 703.681 106.062 702.962 103.875C702.275 101.688 701.931 98.8438 701.931 95.3438H710.556C710.556 97.3125 710.697 98.9062 710.978 100.125C711.259 101.312 712.056 102.234 713.369 102.891C714.681 103.516 716.806 103.953 719.744 104.203C722.712 104.422 726.869 104.531 732.212 104.531C737.869 104.531 742.259 104.422 745.384 104.203C748.541 103.953 750.806 103.516 752.181 102.891C753.556 102.234 754.384 101.297 754.666 100.078C754.978 98.8594 755.134 97.25 755.134 95.25C755.134 92.8125 754.916 90.9844 754.478 89.7656C754.041 88.5469 753.009 87.7344 751.384 87.3281C749.759 86.8906 747.166 86.6562 743.603 86.625L722.134 86.3906C716.603 86.3281 712.384 85.8594 709.478 84.9844C706.572 84.1094 704.587 82.5781 703.525 80.3906C702.462 78.1719 701.931 75.0312 701.931 70.9688C701.931 67.1875 702.509 64.2656 703.666 62.2031C704.853 60.1406 706.697 58.6719 709.197 57.7969C711.697 56.9219 714.947 56.4062 718.947 56.25C722.947 56.0625 727.775 55.9688 733.431 55.9688C740.087 55.9688 745.369 56.1719 749.275 56.5781C753.212 56.9844 756.15 57.75 758.087 58.875C760.056 60 761.337 61.6406 761.931 63.7969C762.556 65.9219 762.869 68.7031 762.869 72.1406H754.244C754.244 70.1094 754.103 68.5156 753.822 67.3594C753.541 66.1719 752.775 65.3125 751.525 64.7812C750.306 64.2188 748.306 63.8594 745.525 63.7031C742.775 63.5469 738.9 63.4688 733.9 63.4688C728.212 63.4688 723.791 63.5312 720.634 63.6562C717.478 63.7812 715.197 64.0781 713.791 64.5469C712.384 65.0156 711.525 65.7656 711.212 66.7969C710.9 67.7969 710.744 69.1875 710.744 70.9688C710.744 72.7812 710.837 74.2188 711.025 75.2812C711.244 76.3125 711.791 77.0938 712.666 77.625C713.541 78.1562 714.962 78.5156 716.931 78.7031C718.931 78.8594 721.712 78.9531 725.275 78.9844L743.791 79.1719C749.353 79.2344 753.572 79.7031 756.447 80.5781C759.353 81.4219 761.322 83 762.353 85.3125C763.416 87.5938 763.947 90.9062 763.947 95.25C763.947 99.1562 763.369 102.234 762.212 104.484C761.087 106.734 759.275 108.406 756.775 109.5C754.275 110.562 750.978 111.25 746.884 111.562C742.822 111.875 737.853 112.031 731.978 112.031ZM782.061 111V39H791.061V70.5H857.061V39H866.061V111H857.061V78H791.061V111H782.061ZM911.879 112.031C904.816 112.031 899.254 111.266 895.191 109.734C891.129 108.172 888.238 105.578 886.519 101.953C884.801 98.2969 883.941 93.3125 883.941 87V57H892.988V87C892.988 90.5625 893.269 93.5 893.832 95.8125C894.426 98.0938 895.457 99.875 896.926 101.156C898.394 102.406 900.457 103.281 903.113 103.781C905.801 104.281 909.254 104.531 913.472 104.531C919.722 104.531 924.629 104.016 928.191 102.984C931.754 101.953 934.269 100.344 935.738 98.1562C937.238 95.9375 937.988 93.0625 937.988 89.5312V57H946.988V111H937.988V103.828C936.676 105.641 935.019 107.156 933.019 108.375C931.019 109.594 928.347 110.5 925.004 111.094C921.66 111.719 917.285 112.031 911.879 112.031ZM995.337 112.031C989.556 112.031 984.665 111.594 980.665 110.719C976.696 109.844 973.571 107.875 971.29 104.812V111H962.29V39H971.29V63.1406C973.571 60.1094 976.696 58.1562 980.665 57.2812C984.665 56.4062 989.556 55.9688 995.337 55.9688C1001.4 55.9688 1006.52 56.2812 1010.71 56.9062C1014.93 57.5312 1018.34 58.7812 1020.93 60.6562C1023.52 62.5312 1025.41 65.3125 1026.6 69C1027.79 72.6875 1028.38 77.5938 1028.38 83.7188C1028.38 90.0312 1027.79 95.0781 1026.6 98.8594C1025.41 102.641 1023.52 105.484 1020.93 107.391C1018.34 109.266 1014.93 110.5 1010.71 111.094C1006.52 111.719 1001.4 112.031 995.337 112.031ZM1019.38 83.7188C1019.38 79.25 1019.15 75.6719 1018.68 72.9844C1018.24 70.2969 1017.26 68.2812 1015.73 66.9375C1014.2 65.5625 1011.81 64.6406 1008.56 64.1719C1005.34 63.7031 1000.93 63.4688 995.337 63.4688C990.243 63.4688 986.118 63.7031 982.962 64.1719C979.806 64.6406 977.384 65.5625 975.696 66.9375C974.009 68.2812 972.852 70.2969 972.227 72.9844C971.602 75.6719 971.29 79.25 971.29 83.7188C971.29 88.3438 971.602 92.0469 972.227 94.8281C972.852 97.6094 974.009 99.7031 975.696 101.109C977.384 102.484 979.806 103.406 982.962 103.875C986.118 104.312 990.243 104.531 995.337 104.531C1000.93 104.531 1005.34 104.312 1008.56 103.875C1011.81 103.406 1014.2 102.484 1015.73 101.109C1017.26 99.7031 1018.24 97.6094 1018.68 94.8281C1019.15 92.0469 1019.38 88.3438 1019.38 83.7188Z" fill="#262626"></path>
<path d="M26 67C40.3594 67 52 78.6406 52 93C52 107.359 40.3594 119 26 119C11.6406 119 0 107.359 0 93C0 78.6406 11.6406 67 26 67ZM107.032 19.0225C117.427 19.4283 126.254 25.9355 130.032 35.0645L142 59L157 67H190C204.359 67 216 78.6406 216 93C216 107.359 204.359 119 190 119C179.904 119 171.152 113.245 166.845 104.837L152 78.5L137 71H75V70.9785C61.1041 70.453 50 59.0245 50 45C50 30.9755 61.1041 19.546 75 19.0205V19H107L107.032 19.0225Z" fill="#E3230C"></path>
</svg>